<svg xmlns="http://www.w3.org/2000/svg" viewBox="0 0 32 32">
  <rect width="32" height="32" rx="6" fill="#f6f2e8"/>
  <g transform="translate(2.2 6.6) scale(0.1117)">
    <path d="M 116.3 4.9 C 116.6 6, 110.8 14.4, 107 18.6 C 104.5 21.3, 103 24.1, 102.5 26.7 C 101.3 34, 93.4 38.5, 71.8 44.5 C 43.3 52.4, 20.9 63.2, 8.7 74.8 C -0.4 83.5, 0.7 85.8, 14.8 88.5 C 19.4 89.4, 25.1 91.2, 27.7 92.5 C 30.2 93.9, 32.9 95, 33.6 95 C 34.3 95, 35 95.3, 35.2 95.8 C 35.4 96.2, 39.3 98.4, 44 100.8 C 53.5 105.6, 56.9 108.4, 65.3 118.5 C 74.3 129.3, 86.6 138.3, 95.3 140.4 L 98 141 96 145.1 C 94.7 147.6, 94 150.5, 94.2 152.8 L 94.5 156.5 104.2 156.8 L 113.8 157.1 114.8 154.3 L 115.8 151.5 115.9 154.3 C 116 156.7, 116.4 157, 119.5 157 C 122.8 157, 123.5 156.3, 123.1 153.3 C 122.8 150.9, 124.8 152, 125.4 154.5 C 126 156.9, 126.3 157, 134.4 157 C 146 157, 148.5 154.1, 143.9 145.6 C 142.8 143.5, 142 141.7, 142.2 141.6 C 142.4 141.5, 144.4 140.8, 146.8 140.1 C 154.6 137.9, 159.2 134.1, 175.7 116.2 C 182.2 109.2, 184 107.8, 190.6 104.6 C 192.3 103.8, 194.2 102.4, 195 101.6 C 195.7 100.7, 197 100, 197.9 100 C 198.9 100, 200.5 99.3, 201.6 98.5 C 205.5 95.4, 212.9 92.5, 228 87.9 C 239.3 84.5, 240.1 83, 233.7 76.2 C 222.5 64.4, 199.2 52.9, 169.3 44.4 C 144.2 37.3, 137 33, 137 25.3 C 137 23.6, 135.5 21.3, 132.5 18.3 C 130 15.9, 126.8 11.7, 125.5 8.9 C 122.2 2.5, 120.1 2.3, 120.8 8.5 C 121.2 12.6, 121.1 13, 119.1 13 C 117.4 13, 117 12.5, 117.4 11.3 C 119.1 5.6, 119.1 4.3, 117.6 4.3 C 116.8 4.3, 116.2 4.6, 116.3 4.9" fill="#1d3a5f" fill-rule="evenodd"/>
  </g>
</svg>
